<svg width="121" height="114" viewBox="0 0 121 114" fill="none" xmlns="http://www.w3.org/2000/svg">
<path fill-rule="evenodd" clip-rule="evenodd" d="M43.2188 16.9525C48.1068 8.09531 58.947 4.60496 68.0053 8.71479C71.8696 10.3314 75.2359 13.2151 77.417 17.1673L111.236 78.4484C116.373 87.7557 112.992 99.4646 103.684 104.601C94.377 109.737 82.6681 106.356 77.5317 97.049L69.9754 83.3568C74.5649 80.2025 77.5745 74.9156 77.5745 68.9258C77.5745 59.2617 69.7402 51.4273 60.0761 51.4273C50.412 51.4273 42.5777 59.2617 42.5777 68.9258C42.5777 75.0306 45.704 80.4053 50.4429 83.5362L43.1041 96.8342C37.9677 106.141 26.2588 109.523 16.9515 104.386C7.64425 99.2497 4.2631 87.5408 9.39952 78.2336L43.2188 16.9525Z" fill="black"/>
</svg>
